<svg width="263" height="117" viewBox="0 0 263 117" fill="none" xmlns="http://www.w3.org/2000/svg">
<path d="M130.108 68.6738C130.108 67.2904 129.62 66.2324 128.643 65.5C127.667 64.7513 125.909 63.9701 123.37 63.1562C120.831 62.3262 118.821 61.5124 117.34 60.7148C113.303 58.5339 111.285 55.596 111.285 51.9014C111.285 49.9808 111.822 48.2718 112.896 46.7744C113.987 45.2607 115.541 44.0807 117.559 43.2344C119.594 42.388 121.873 41.9648 124.395 41.9648C126.934 41.9648 129.197 42.4287 131.182 43.3564C133.168 44.2679 134.706 45.5618 135.797 47.2383C136.903 48.9147 137.457 50.819 137.457 52.9512H130.133C130.133 51.3236 129.62 50.0622 128.595 49.167C127.569 48.2555 126.129 47.7998 124.273 47.7998C122.483 47.7998 121.091 48.1823 120.098 48.9473C119.106 49.696 118.609 50.6888 118.609 51.9258C118.609 53.0814 119.187 54.0498 120.343 54.8311C121.514 55.6123 123.232 56.3447 125.494 57.0283C129.661 58.2816 132.696 59.8359 134.6 61.6914C136.505 63.5469 137.457 65.8581 137.457 68.625C137.457 71.7012 136.293 74.1182 133.966 75.876C131.638 77.6175 128.505 78.4883 124.566 78.4883C121.832 78.4883 119.342 77.9919 117.096 76.999C114.849 75.9899 113.132 74.6146 111.944 72.873C110.772 71.1315 110.186 69.1133 110.186 66.8184H117.535C117.535 70.7409 119.879 72.7021 124.566 72.7021C126.308 72.7021 127.667 72.3522 128.643 71.6523C129.62 70.9362 130.108 69.9434 130.108 68.6738ZM142.34 74.5332C142.34 73.4102 142.714 72.4987 143.463 71.7988C144.228 71.099 145.18 70.749 146.319 70.749C147.475 70.749 148.427 71.099 149.176 71.7988C149.941 72.4987 150.323 73.4102 150.323 74.5332C150.323 75.64 149.949 76.5433 149.2 77.2432C148.451 77.9268 147.491 78.2686 146.319 78.2686C145.164 78.2686 144.211 77.9268 143.463 77.2432C142.714 76.5433 142.34 75.64 142.34 74.5332ZM186.187 61.0322C186.187 64.5316 185.569 67.5996 184.332 70.2363C183.095 72.873 181.321 74.9076 179.01 76.3398C176.715 77.7721 174.078 78.4883 171.099 78.4883C168.153 78.4883 165.525 77.7803 163.214 76.3643C160.902 74.9482 159.112 72.93 157.843 70.3096C156.573 67.6729 155.93 64.6455 155.914 61.2275V59.4697C155.914 55.9704 156.541 52.8942 157.794 50.2412C159.063 47.5719 160.846 45.5293 163.14 44.1133C165.452 42.681 168.088 41.9648 171.051 41.9648C174.013 41.9648 176.641 42.681 178.936 44.1133C181.248 45.5293 183.03 47.5719 184.283 50.2412C185.553 52.8942 186.187 55.9622 186.187 59.4453V61.0322ZM178.765 59.4209C178.765 55.6937 178.098 52.8617 176.763 50.9248C175.429 48.988 173.525 48.0195 171.051 48.0195C168.593 48.0195 166.697 48.9798 165.362 50.9004C164.027 52.8047 163.352 55.6042 163.336 59.2988V61.0322C163.336 64.6618 164.003 67.4775 165.338 69.4795C166.672 71.4814 168.593 72.4824 171.099 72.4824C173.557 72.4824 175.445 71.5221 176.763 69.6016C178.082 67.6647 178.749 64.849 178.765 61.1543V59.4209ZM188.433 74.5332C188.433 73.4102 188.808 72.4987 189.556 71.7988C190.321 71.099 191.274 70.749 192.413 70.749C193.569 70.749 194.521 71.099 195.269 71.7988C196.034 72.4987 196.417 73.4102 196.417 74.5332C196.417 75.64 196.042 76.5433 195.294 77.2432C194.545 77.9268 193.585 78.2686 192.413 78.2686C191.257 78.2686 190.305 77.9268 189.556 77.2432C188.808 76.5433 188.433 75.64 188.433 74.5332ZM231.988 78H224.664L210.406 54.6113V78H203.082V42.4531H210.406L224.688 65.8906V42.4531H231.988V78ZM238.287 74.5332C238.287 73.4102 238.661 72.4987 239.41 71.7988C240.175 71.099 241.127 70.749 242.266 70.749C243.422 70.749 244.374 71.099 245.123 71.7988C245.888 72.4987 246.27 73.4102 246.27 74.5332C246.27 75.64 245.896 76.5433 245.147 77.2432C244.399 77.9268 243.438 78.2686 242.266 78.2686C241.111 78.2686 240.159 77.9268 239.41 77.2432C238.661 76.5433 238.287 75.64 238.287 74.5332Z" fill="#0C6784"/>
<g clip-path="url(#clip0_63_287)" filter="url(#filter0_d_63_287)">
<path d="M58 57L47.5 31.5" stroke="#43B5F4" stroke-width="2" stroke-miterlimit="10"/>
<path d="M58 57L25.5 24.5" stroke="#43B5F4" stroke-width="2" stroke-miterlimit="10"/>
<path d="M58 56.5L29 51" stroke="#43B5F4" stroke-width="2" stroke-miterlimit="10"/>
<path d="M58 57L23.5 65" stroke="#43B5F4" stroke-width="2" stroke-miterlimit="10"/>
<path d="M57.5 56.5L33 74" stroke="#43B5F4" stroke-width="2" stroke-miterlimit="10"/>
<path d="M58 57L32 91.5" stroke="#43B5F4" stroke-width="2" stroke-miterlimit="10"/>
<path d="M58 57L53 87" stroke="#43B5F4" stroke-width="2" stroke-miterlimit="10"/>
<path d="M55 58.5L66 87" stroke="#43B5F4" stroke-width="2" stroke-miterlimit="10"/>
<path d="M58 57L84.5 93.5" stroke="#43B5F4" stroke-width="2" stroke-miterlimit="10"/>
<path d="M58 57L83.5 76" stroke="#43B5F4" stroke-width="2" stroke-miterlimit="10"/>
<path d="M58 57L86 64.5" stroke="#43B5F4" stroke-width="2" stroke-miterlimit="10"/>
<path d="M58 57L97.5 48.5" stroke="#43B5F4" stroke-width="2" stroke-miterlimit="10"/>
<path d="M58 57L68.5 32" stroke="#43B5F4" stroke-width="2" stroke-miterlimit="10"/>
<path d="M79.5 41.5L58 57" stroke="#43B5F4" stroke-width="2" stroke-miterlimit="10"/>
<path d="M58 47V23" stroke="#43B5F4" stroke-width="2" stroke-miterlimit="10"/>
<path d="M58 75C67.9411 75 76 66.9411 76 57C76 47.0589 67.9411 39 58 39C48.0589 39 40 47.0589 40 57C40 66.9411 48.0589 75 58 75Z" fill="url(#paint0_linear_63_287)"/>
<path d="M58 25C59.3807 25 60.5 23.8807 60.5 22.5C60.5 21.1193 59.3807 20 58 20C56.6193 20 55.5 21.1193 55.5 22.5C55.5 23.8807 56.6193 25 58 25Z" fill="#0C6784"/>
<path d="M69 33C70.1046 33 71 32.1046 71 31C71 29.8954 70.1046 29 69 29C67.8954 29 67 29.8954 67 31C67 32.1046 67.8954 33 69 33Z" fill="#0C6784"/>
<path d="M80 43.5C81.3807 43.5 82.5 42.3807 82.5 41C82.5 39.6193 81.3807 38.5 80 38.5C78.6193 38.5 77.5 39.6193 77.5 41C77.5 42.3807 78.6193 43.5 80 43.5Z" fill="#0C6784"/>
<path d="M99 50.5C100.381 50.5 101.5 49.3807 101.5 48C101.5 46.6193 100.381 45.5 99 45.5C97.6193 45.5 96.5 46.6193 96.5 48C96.5 49.3807 97.6193 50.5 99 50.5Z" fill="#0C6784"/>
<path d="M87 66.5C88.1046 66.5 89 65.6046 89 64.5C89 63.3954 88.1046 62.5 87 62.5C85.8954 62.5 85 63.3954 85 64.5C85 65.6046 85.8954 66.5 87 66.5Z" fill="#0C6784"/>
<path d="M84 78.5C85.1046 78.5 86 77.6046 86 76.5C86 75.3954 85.1046 74.5 84 74.5C82.8954 74.5 82 75.3954 82 76.5C82 77.6046 82.8954 78.5 84 78.5Z" fill="#0C6784"/>
<path d="M85.5 97.5C86.8807 97.5 88 96.3807 88 95C88 93.6193 86.8807 92.5 85.5 92.5C84.1193 92.5 83 93.6193 83 95C83 96.3807 84.1193 97.5 85.5 97.5Z" fill="#0C6784"/>
<path d="M66 89.5C67.1046 89.5 68 88.6046 68 87.5C68 86.3954 67.1046 85.5 66 85.5C64.8954 85.5 64 86.3954 64 87.5C64 88.6046 64.8954 89.5 66 89.5Z" fill="#0C6784"/>
<path d="M53 89.5C54.1046 89.5 55 88.6046 55 87.5C55 86.3954 54.1046 85.5 53 85.5C51.8954 85.5 51 86.3954 51 87.5C51 88.6046 51.8954 89.5 53 89.5Z" fill="#0C6784"/>
<path d="M31.5 94.5C32.8807 94.5 34 93.3807 34 92C34 90.6193 32.8807 89.5 31.5 89.5C30.1193 89.5 29 90.6193 29 92C29 93.3807 30.1193 94.5 31.5 94.5Z" fill="#0C6784"/>
<path d="M32 76.5C33.1046 76.5 34 75.6046 34 74.5C34 73.3954 33.1046 72.5 32 72.5C30.8954 72.5 30 73.3954 30 74.5C30 75.6046 30.8954 76.5 32 76.5Z" fill="#0C6784"/>
<path d="M22.5 67.5C23.8807 67.5 25 66.3807 25 65C25 63.6193 23.8807 62.5 22.5 62.5C21.1193 62.5 20 63.6193 20 65C20 66.3807 21.1193 67.5 22.5 67.5Z" fill="#0C6784"/>
<path d="M28 52.5C29.1046 52.5 30 51.6046 30 50.5C30 49.3954 29.1046 48.5 28 48.5C26.8954 48.5 26 49.3954 26 50.5C26 51.6046 26.8954 52.5 28 52.5Z" fill="#0C6784"/>
<path d="M47 32.5C48.1046 32.5 49 31.6046 49 30.5C49 29.3954 48.1046 28.5 47 28.5C45.8954 28.5 45 29.3954 45 30.5C45 31.6046 45.8954 32.5 47 32.5Z" fill="#0C6784"/>
<path d="M24.5 26C25.8807 26 27 24.8807 27 23.5C27 22.1193 25.8807 21 24.5 21C23.1193 21 22 22.1193 22 23.5C22 24.8807 23.1193 26 24.5 26Z" fill="#0C6784"/>
<mask id="mask0_63_287" style="mask-type:alpha" maskUnits="userSpaceOnUse" x="40" y="39" width="36" height="36">
<path d="M58 75C67.9411 75 76 66.9411 76 57C76 47.0589 67.9411 39 58 39C48.0589 39 40 47.0589 40 57C40 66.9411 48.0589 75 58 75Z" fill="url(#paint1_linear_63_287)"/>
</mask>
<g mask="url(#mask0_63_287)">
<circle cx="57" cy="79" r="14" fill="white" fill-opacity="0.18"/>
<circle cx="70.5" cy="65.5" r="14.5" fill="white" fill-opacity="0.18"/>
</g>
</g>
<defs>
<filter id="filter0_d_63_287" x="0.562983" y="0.562983" width="120.374" height="116.374" filterUnits="userSpaceOnUse" color-interpolation-filters="sRGB">
<feFlood flood-opacity="0" result="BackgroundImageFix"/>
<feColorMatrix in="SourceAlpha" type="matrix" values="0 0 0 0 0 0 0 0 0 0 0 0 0 0 0 0 0 0 127 0" result="hardAlpha"/>
<feOffset/>
<feGaussianBlur stdDeviation="9.71851"/>
<feColorMatrix type="matrix" values="0 0 0 0 0.0470588 0 0 0 0 0.403922 0 0 0 0 0.517647 0 0 0 0.7 0"/>
<feBlend mode="normal" in2="BackgroundImageFix" result="effect1_dropShadow_63_287"/>
<feBlend mode="normal" in="SourceGraphic" in2="effect1_dropShadow_63_287" result="shape"/>
</filter>
<linearGradient id="paint0_linear_63_287" x1="46.3" y1="70.05" x2="69.25" y2="46.2" gradientUnits="userSpaceOnUse">
<stop stop-color="#065E77"/>
<stop offset="1" stop-color="#3EA3D5"/>
</linearGradient>
<linearGradient id="paint1_linear_63_287" x1="45" y1="65.5" x2="71" y2="47.5" gradientUnits="userSpaceOnUse">
<stop stop-color="#0B6682"/>
<stop offset="1" stop-color="#2B98CD"/>
</linearGradient>
<clipPath id="clip0_63_287">
<rect width="81.5" height="77.5" fill="white" transform="translate(20 20)"/>
</clipPath>
</defs>
</svg>
